<svg width="21" height="22" viewBox="0 0 21 22" fill="none" xmlns="http://www.w3.org/2000/svg">
<path d="M1.8026 13.3449C1.86289 13.5659 2.0074 13.7544 2.2051 13.8699L3.87635 14.8412V16.7662C3.87635 16.9983 3.96853 17.2208 4.13263 17.3849C4.29672 17.549 4.51928 17.6412 4.75135 17.6412H6.67635L7.6476 19.3124C7.72394 19.4447 7.83357 19.5546 7.96558 19.6314C8.0976 19.7081 8.2474 19.749 8.4001 19.7499C8.55714 19.7499 8.71128 19.7076 8.84635 19.6274L10.5088 18.6649L12.1801 19.6274C12.2794 19.6857 12.3893 19.7237 12.5034 19.7394C12.6174 19.755 12.7335 19.748 12.8449 19.7188C12.9562 19.6895 13.0607 19.6386 13.1524 19.5688C13.244 19.4991 13.321 19.412 13.3788 19.3124L14.3413 17.6412H16.2663C16.4984 17.6412 16.721 17.549 16.8851 17.3849C17.0492 17.2208 17.1413 16.9983 17.1413 16.7662V14.8412L18.8126 13.8699C19.0127 13.7545 19.1591 13.5646 19.2198 13.3417C19.2804 13.1187 19.2504 12.8809 19.1363 12.6799L18.1651 10.9999L19.1363 9.32869C19.2504 9.12777 19.2804 8.88989 19.2198 8.66696C19.1591 8.44402 19.0127 8.25412 18.8126 8.13869L17.1413 7.17619V5.25119C17.1413 5.01912 17.0492 4.79656 16.8851 4.63247C16.721 4.46837 16.4984 4.37619 16.2663 4.37619H14.3413L13.3788 2.70494C13.2612 2.50542 13.0693 2.36067 12.8451 2.30244C12.7339 2.27257 12.618 2.26492 12.5039 2.27994C12.3898 2.29495 12.2797 2.33233 12.1801 2.38994L10.5001 3.35244L8.8376 2.38994C8.63774 2.27513 8.40065 2.24381 8.17784 2.30279C7.95502 2.36177 7.76448 2.50628 7.6476 2.70494L6.67635 4.37619H4.75135C4.51928 4.37619 4.29672 4.46837 4.13263 4.63247C3.96853 4.79656 3.87635 5.01912 3.87635 5.25119V7.17619L2.21385 8.13869C2.11358 8.19585 2.02562 8.27229 1.95502 8.36359C1.88442 8.45489 1.83258 8.55926 1.80249 8.67068C1.7724 8.78211 1.76465 8.89838 1.77968 9.01281C1.79472 9.12724 1.83224 9.23757 1.8901 9.33744L2.8526 10.9999L1.8901 12.6712C1.83133 12.772 1.79331 12.8835 1.77828 12.9992C1.76326 13.1149 1.77152 13.2325 1.8026 13.3449ZM4.6201 10.5712L3.84135 9.24994L5.1976 8.46244C5.32821 8.38499 5.43643 8.27489 5.5116 8.14295C5.58678 8.01102 5.62632 7.86179 5.62635 7.70994V6.12619H7.18385C7.33803 6.1268 7.48964 6.08666 7.62332 6.00983C7.757 5.933 7.868 5.82222 7.9451 5.68869L8.7501 4.34119L10.0976 5.11994C10.2306 5.19674 10.3815 5.23717 10.5351 5.23717C10.6887 5.23717 10.8396 5.19674 10.9726 5.11994L12.3288 4.34119L13.1251 5.68869C13.2022 5.82222 13.3132 5.933 13.4469 6.00983C13.5806 6.08666 13.7322 6.1268 13.8863 6.12619H15.4351V7.68369C15.436 7.83639 15.4769 7.98619 15.5536 8.1182C15.6304 8.25021 15.7404 8.35984 15.8726 8.43619L17.2201 9.22369L16.4413 10.5712C16.3646 10.7042 16.3241 10.8551 16.3241 11.0087C16.3241 11.1623 16.3646 11.3132 16.4413 11.4462L17.2201 12.7937L15.8726 13.5812C15.7404 13.6575 15.6304 13.7672 15.5536 13.8992C15.4769 14.0312 15.436 14.181 15.4351 14.3337V15.8912H13.8338C13.6811 15.8921 13.5313 15.933 13.3993 16.0097C13.2673 16.0865 13.1577 16.1964 13.0813 16.3287L12.3026 17.6762L10.9463 16.8974C10.8133 16.8206 10.6624 16.7802 10.5088 16.7802C10.3553 16.7802 10.2044 16.8206 10.0713 16.8974L8.7501 17.6762L7.97135 16.3287C7.89425 16.1952 7.78325 16.0844 7.64957 16.0075C7.51589 15.9307 7.36428 15.8906 7.2101 15.8912H5.62635V14.3337C5.61898 14.1893 5.57597 14.049 5.50115 13.9254C5.42633 13.8017 5.32204 13.6985 5.1976 13.6249L3.84135 12.8374L4.6201 11.4899C4.70527 11.3519 4.75038 11.1928 4.75038 11.0306C4.75038 10.8683 4.70527 10.7093 4.6201 10.5712Z" fill="#333333"/>
</svg>
