<svg width="20" height="20" viewBox="0 0 20 20" fill="none" xmlns="http://www.w3.org/2000/svg">
<path d="M10.0001 3.5L0.878418 6.9207L10.0001 11.4815L14.3446 9.30926L10.2689 8.06316C10.185 8.10341 10.0931 8.1244 10.0001 8.12461C9.8343 8.12461 9.67533 8.05876 9.55812 7.94155C9.44091 7.82434 9.37506 7.66537 9.37506 7.49961C9.37506 7.33385 9.44091 7.17488 9.55812 7.05767C9.67533 6.94046 9.8343 6.87461 10.0001 6.87461L9.8967 7.21063L10.6208 7.4334L10.6211 7.43559L11.6896 7.76234L17.7735 9.63418V10.1086C17.6893 10.1659 17.6205 10.2428 17.5728 10.3327C17.5251 10.4227 17.5002 10.5229 17.5001 10.6246C17.5002 10.7288 17.5263 10.8312 17.576 10.9226C17.6258 11.0141 17.6976 11.0917 17.7849 11.1483C17.5004 12.2235 17.5001 14.663 17.5001 15.6246C18.1251 16.0307 18.1251 16.0455 18.7501 15.6246C18.7501 14.6631 18.7497 12.2241 18.4653 11.1487C18.5527 11.092 18.6245 11.0143 18.6742 10.9228C18.724 10.8313 18.75 10.7288 18.7501 10.6246C18.75 10.5227 18.7251 10.4224 18.6775 10.3323C18.6298 10.2423 18.5609 10.1652 18.4766 10.1079V9.11496L16.1593 8.40195L19.1217 6.9207L10.0001 3.5ZM4.67283 9.72617L4.16021 12.802C5.18268 12.9357 6.40576 13.53 7.53014 14.2327C8.16959 14.6324 8.76853 15.0711 9.25498 15.4968C9.55232 15.7569 9.80096 16.0065 10.0001 16.2521C10.1992 16.0065 10.4478 15.7569 10.7451 15.4968C11.2316 15.0711 11.8305 14.6324 12.47 14.2327C13.5944 13.53 14.8174 12.9357 15.8399 12.802L15.3272 9.72617H15.0831L10.0001 12.2677L4.91697 9.72617H4.67283Z" fill="#333333"/>
</svg>
