<svg width="18" height="18" viewBox="0 0 18 18" fill="none" xmlns="http://www.w3.org/2000/svg">
<path d="M4.6875 9C4.53832 9 4.39524 9.05926 4.28975 9.16475C4.18426 9.27024 4.125 9.41332 4.125 9.5625C4.125 9.71168 4.18426 9.85476 4.28975 9.96025C4.39524 10.0657 4.53832 10.125 4.6875 10.125H5.0625C5.21168 10.125 5.35476 10.0657 5.46025 9.96025C5.56574 9.85476 5.625 9.71168 5.625 9.5625C5.625 9.41332 5.56574 9.27024 5.46025 9.16475C5.35476 9.05926 5.21168 9 5.0625 9H4.6875ZM4.125 6.9375C4.125 6.78832 4.18426 6.64524 4.28975 6.53975C4.39524 6.43426 4.53832 6.375 4.6875 6.375H5.0625C5.21168 6.375 5.35476 6.43426 5.46025 6.53975C5.56574 6.64524 5.625 6.78832 5.625 6.9375C5.625 7.08668 5.56574 7.22976 5.46025 7.33525C5.35476 7.44074 5.21168 7.5 5.0625 7.5H4.6875C4.53832 7.5 4.39524 7.44074 4.28975 7.33525C4.18426 7.22976 4.125 7.08668 4.125 6.9375ZM4.6875 3.75C4.53832 3.75 4.39524 3.80926 4.28975 3.91475C4.18426 4.02024 4.125 4.16332 4.125 4.3125C4.125 4.46168 4.18426 4.60476 4.28975 4.71025C4.39524 4.81574 4.53832 4.875 4.6875 4.875H5.0625C5.21168 4.875 5.35476 4.81574 5.46025 4.71025C5.56574 4.60476 5.625 4.46168 5.625 4.3125C5.625 4.16332 5.56574 4.02024 5.46025 3.91475C5.35476 3.80926 5.21168 3.75 5.0625 3.75H4.6875ZM6.75 9.5625C6.75 9.41332 6.80926 9.27024 6.91475 9.16475C7.02024 9.05926 7.16332 9 7.3125 9H7.6875C7.83668 9 7.97976 9.05926 8.08525 9.16475C8.19074 9.27024 8.25 9.41332 8.25 9.5625C8.25 9.71168 8.19074 9.85476 8.08525 9.96025C7.97976 10.0657 7.83668 10.125 7.6875 10.125H7.3125C7.16332 10.125 7.02024 10.0657 6.91475 9.96025C6.80926 9.85476 6.75 9.71168 6.75 9.5625ZM7.3125 6.375C7.16332 6.375 7.02024 6.43426 6.91475 6.53975C6.80926 6.64524 6.75 6.78832 6.75 6.9375C6.75 7.08668 6.80926 7.22976 6.91475 7.33525C7.02024 7.44074 7.16332 7.5 7.3125 7.5H7.6875C7.83668 7.5 7.97976 7.44074 8.08525 7.33525C8.19074 7.22976 8.25 7.08668 8.25 6.9375C8.25 6.78832 8.19074 6.64524 8.08525 6.53975C7.97976 6.43426 7.83668 6.375 7.6875 6.375H7.3125ZM6.75 4.3125C6.75 4.16332 6.80926 4.02024 6.91475 3.91475C7.02024 3.80926 7.16332 3.75 7.3125 3.75H7.6875C7.83668 3.75 7.97976 3.80926 8.08525 3.91475C8.19074 4.02024 8.25 4.16332 8.25 4.3125C8.25 4.46168 8.19074 4.60476 8.08525 4.71025C7.97976 4.81574 7.83668 4.875 7.6875 4.875H7.3125C7.16332 4.875 7.02024 4.81574 6.91475 4.71025C6.80926 4.60476 6.75 4.46168 6.75 4.3125ZM9.9375 9C9.78832 9 9.64524 9.05926 9.53975 9.16475C9.43426 9.27024 9.375 9.41332 9.375 9.5625C9.375 9.71168 9.43426 9.85476 9.53975 9.96025C9.64524 10.0657 9.78832 10.125 9.9375 10.125H10.3125C10.4617 10.125 10.6048 10.0657 10.7102 9.96025C10.8157 9.85476 10.875 9.71168 10.875 9.5625C10.875 9.41332 10.8157 9.27024 10.7102 9.16475C10.6048 9.05926 10.4617 9 10.3125 9H9.9375ZM9.375 6.9375C9.375 6.78832 9.43426 6.64524 9.53975 6.53975C9.64524 6.43426 9.78832 6.375 9.9375 6.375H10.3125C10.4617 6.375 10.6048 6.43426 10.7102 6.53975C10.8157 6.64524 10.875 6.78832 10.875 6.9375C10.875 7.08668 10.8157 7.22976 10.7102 7.33525C10.6048 7.44074 10.4617 7.5 10.3125 7.5H9.9375C9.78832 7.5 9.64524 7.44074 9.53975 7.33525C9.43426 7.22976 9.375 7.08668 9.375 6.9375ZM9.9375 3.75C9.78832 3.75 9.64524 3.80926 9.53975 3.91475C9.43426 4.02024 9.375 4.16332 9.375 4.3125C9.375 4.46168 9.43426 4.60476 9.53975 4.71025C9.64524 4.81574 9.78832 4.875 9.9375 4.875H10.3125C10.4617 4.875 10.6048 4.81574 10.7102 4.71025C10.8157 4.60476 10.875 4.46168 10.875 4.3125C10.875 4.16332 10.8157 4.02024 10.7102 3.91475C10.6048 3.80926 10.4617 3.75 10.3125 3.75H9.9375Z" fill="#383838"/>
<path d="M1.5 15V2.25C1.5 1.85218 1.65804 1.47064 1.93934 1.18934C2.22064 0.908035 2.60218 0.75 3 0.75H12C12.3978 0.75 12.7794 0.908035 13.0607 1.18934C13.342 1.47064 13.5 1.85218 13.5 2.25V15C13.5 15.13 13.4843 15.255 13.4528 15.375H15C15.0995 15.375 15.1948 15.3355 15.2652 15.2652C15.3355 15.1948 15.375 15.0995 15.375 15V9C15.375 8.94178 15.3614 8.88437 15.3354 8.83229C15.3094 8.78022 15.2716 8.73493 15.225 8.7L14.85 8.41875C14.7307 8.32924 14.6518 8.19598 14.6307 8.0483C14.6096 7.90061 14.648 7.7506 14.7375 7.63125C14.827 7.5119 14.9603 7.433 15.108 7.4119C15.2556 7.39081 15.4057 7.42924 15.525 7.51875L15.9 7.8C16.278 8.0835 16.5 8.5275 16.5 9V15C16.5 15.3978 16.342 15.7794 16.0607 16.0607C15.7794 16.342 15.3978 16.5 15 16.5H12.3285C12.2867 16.499 12.2451 16.4945 12.204 16.4865C12.137 16.4955 12.069 16.5 12 16.5H9.1875C9.03832 16.5 8.89524 16.4407 8.78975 16.3352C8.68426 16.2298 8.625 16.0867 8.625 15.9375V14.25H6.375V15.9375C6.375 16.0867 6.31574 16.2298 6.21025 16.3352C6.10476 16.4407 5.96168 16.5 5.8125 16.5H3C2.60218 16.5 2.22064 16.342 1.93934 16.0607C1.65804 15.7794 1.5 15.3978 1.5 15ZM3 15.375H5.25V13.6875C5.25 13.5383 5.30926 13.3952 5.41475 13.2898C5.52024 13.1843 5.66332 13.125 5.8125 13.125H9.1875C9.33668 13.125 9.47976 13.1843 9.58525 13.2898C9.69074 13.3952 9.75 13.5383 9.75 13.6875V15.375H12C12.0995 15.375 12.1948 15.3355 12.2652 15.2652C12.3355 15.1948 12.375 15.0995 12.375 15V2.25C12.375 2.15054 12.3355 2.05516 12.2652 1.98484C12.1948 1.91451 12.0995 1.875 12 1.875H3C2.90054 1.875 2.80516 1.91451 2.73484 1.98484C2.66451 2.05516 2.625 2.15054 2.625 2.25V15C2.625 15.0995 2.66451 15.1948 2.73484 15.2652C2.80516 15.3355 2.90054 15.375 3 15.375Z" fill="#383838"/>
</svg>
