<svg width="16" height="18" viewBox="0 0 16 18" fill="none" xmlns="http://www.w3.org/2000/svg">
<path d="M10.0833 14.0003C9.5 14.0003 9.00695 13.7989 8.60417 13.3962C8.20139 12.9934 8 12.5003 8 11.917C8 11.3337 8.20139 10.8406 8.60417 10.4378C9.00695 10.035 9.5 9.83366 10.0833 9.83366C10.6667 9.83366 11.1597 10.035 11.5625 10.4378C11.9653 10.8406 12.1667 11.3337 12.1667 11.917C12.1667 12.5003 11.9653 12.9934 11.5625 13.3962C11.1597 13.7989 10.6667 14.0003 10.0833 14.0003ZM2.16667 17.3337C1.70833 17.3337 1.31611 17.1706 0.99 16.8445C0.663889 16.5184 0.500556 16.1259 0.5 15.667V4.00033C0.5 3.54199 0.663333 3.14977 0.99 2.82366C1.31667 2.49755 1.70889 2.33421 2.16667 2.33366H3V0.666992H4.66667V2.33366H11.3333V0.666992H13V2.33366H13.8333C14.2917 2.33366 14.6842 2.49699 15.0108 2.82366C15.3375 3.15033 15.5006 3.54255 15.5 4.00033V15.667C15.5 16.1253 15.3369 16.5178 15.0108 16.8445C14.6847 17.1712 14.2922 17.3342 13.8333 17.3337H2.16667ZM2.16667 15.667H13.8333V7.33366H2.16667V15.667ZM2.16667 5.66699H13.8333V4.00033H2.16667V5.66699Z" fill="#2D3A4B"/>
</svg>
